<svg xmlns="http://www.w3.org/2000/svg" viewBox="0 0 120 120" fill="none">
  <!-- Background circle -->
  <circle cx="60" cy="60" r="58" fill="#FFE066" stroke="#FF6B6B" stroke-width="4"/>
  
  <!-- Cute elephant body -->
  <ellipse cx="60" cy="75" rx="25" ry="20" fill="#87CEEB"/>
  
  <!-- Elephant head -->
  <circle cx="60" cy="50" r="22" fill="#87CEEB"/>
  
  <!-- Elephant trunk -->
  <path d="M45 55 Q35 65 40 75 Q45 70 50 65" fill="#87CEEB" stroke="#4A90E2" stroke-width="1"/>
  
  <!-- Eyes -->
  <circle cx="54" cy="45" r="3" fill="#2D3748"/>
  <circle cx="66" cy="45" r="3" fill="#2D3748"/>
  <circle cx="55" cy="44" r="1" fill="white"/>
  <circle cx="67" cy="44" r="1" fill="white"/>
  
  <!-- Ears -->
  <ellipse cx="42" cy="45" rx="8" ry="12" fill="#5DADE2"/>
  <ellipse cx="78" cy="45" rx="8" ry="12" fill="#5DADE2"/>
  
  <!-- Smile -->
  <path d="M52 55 Q60 62 68 55" fill="none" stroke="#2D3748" stroke-width="2" stroke-linecap="round"/>
  
  <!-- Educational elements - stars around the logo -->
  <polygon points="20,25 22,31 28,31 23,35 25,41 20,37 15,41 17,35 12,31 18,31" fill="#FFD700"/>
  <polygon points="95,30 97,36 103,36 98,40 100,46 95,42 90,46 92,40 87,36 93,36" fill="#FFD700"/>
  <polygon points="15,85 17,91 23,91 18,95 20,101 15,97 10,101 12,95 7,91 13,91" fill="#FFD700"/>
  <polygon points="100,85 102,91 108,91 103,95 105,101 100,97 95,101 97,95 92,91 98,91" fill="#FFD700"/>
  
  <!-- Book icon at bottom -->
  <rect x="48" y="95" width="24" height="18" rx="2" fill="#FF6B6B"/>
  <rect x="50" y="97" width="20" height="14" rx="1" fill="white"/>
  <line x1="52" y1="100" x2="68" y2="100" stroke="#FF6B6B" stroke-width="1"/>
  <line x1="52" y1="103" x2="65" y2="103" stroke="#FF6B6B" stroke-width="1"/>
  <line x1="52" y1="106" x2="67" y2="106" stroke="#FF6B6B" stroke-width="1"/>
</svg>
